<svg width="33" height="32" viewBox="0 0 33 32" fill="none" xmlns="http://www.w3.org/2000/svg">
<g id="entypo:light-down">
<path id="Vector" d="M16.7095 10.8752C16.0348 10.8733 15.3663 11.0045 14.7425 11.2612C14.1188 11.5179 13.5521 11.8951 13.075 12.3711C12.598 12.8471 12.22 13.4125 11.9628 14.0347C11.7056 14.6569 11.5743 15.3238 11.5764 15.9968C11.5745 16.6696 11.706 17.3362 11.9633 17.9581C12.2206 18.5801 12.5986 19.1452 13.0757 19.6209C13.5527 20.0965 14.1194 20.4735 14.743 20.7299C15.3667 20.9864 16.035 21.1173 16.7095 21.1152C17.384 21.1171 18.0521 20.986 18.6755 20.7294C19.299 20.4729 19.8655 20.0959 20.3423 19.6203C20.8192 19.1446 21.1971 18.5796 21.4544 17.9578C21.7116 17.3359 21.843 16.6695 21.8411 15.9968C21.8434 15.3238 21.7123 14.6571 21.4553 14.0348C21.1983 13.4126 20.8204 12.8472 20.3435 12.3712C19.8666 11.8952 19.3 11.518 18.6763 11.2612C18.0526 11.0045 17.3842 10.8733 16.7095 10.8752ZM16.7095 19.2752C15.8374 19.2752 15.001 18.9296 14.3843 18.3145C13.7676 17.6994 13.4211 16.8651 13.4211 15.9952C13.4211 15.1253 13.7676 14.291 14.3843 13.6759C15.001 13.0608 15.8374 12.7152 16.7095 12.7152C17.5817 12.7152 18.4181 13.0608 19.0348 13.6759C19.6515 14.291 19.998 15.1253 19.998 15.9952C19.998 16.8651 19.6515 17.6994 19.0348 18.3145C18.4181 18.9296 17.5817 19.2752 16.7095 19.2752ZM24.7301 7.99999C24.2296 7.50079 23.3137 7.60319 22.6881 8.22719C22.0625 8.85279 21.9614 9.76159 22.4619 10.2624C22.9624 10.7632 23.8767 10.6624 24.5039 10.0368C25.1295 9.41279 25.2306 8.49919 24.7301 7.99999ZM8.91675 21.9664C8.28955 22.5904 8.18849 23.5008 8.68897 24C9.18945 24.4992 10.1038 24.4 10.731 23.7744C11.3582 23.1488 11.4593 22.2368 10.9588 21.7376C10.4583 21.2384 9.54236 21.3408 8.91675 21.9664ZM8.68897 7.99999C8.18849 8.49919 8.28955 9.41279 8.91515 10.0368C9.54236 10.6624 10.4567 10.7616 10.9572 10.2624C11.4577 9.76319 11.3566 8.84959 10.7294 8.22559C10.1054 7.60319 9.18945 7.50079 8.68897 7.99999ZM22.6881 23.7712C23.3137 24.3968 24.228 24.4992 24.7301 24C25.2322 23.5008 25.1295 22.5872 24.5023 21.9616C23.8751 21.336 22.9624 21.2368 22.4603 21.736C21.9582 22.2352 22.0625 23.1472 22.6881 23.7712ZM16.7095 7.99679C17.417 7.99679 17.9928 7.28159 17.9928 6.39679C17.9912 5.51199 17.417 4.79999 16.7095 4.79999C16.0005 4.79999 15.4246 5.51199 15.4246 6.39679C15.4246 7.28159 15.9989 7.99679 16.7095 7.99679ZM16.7095 27.2C17.417 27.2 17.9928 26.4848 17.9928 25.6C17.9928 24.7152 17.4186 24.0032 16.7111 24.0032C16.0021 24.0032 15.4262 24.7152 15.4262 25.6C15.4246 26.4848 15.9989 27.2 16.7095 27.2ZM8.68897 16C8.68897 15.2944 7.96712 14.72 7.08004 14.72C6.19297 14.72 5.48074 15.2944 5.48074 16C5.48074 16.7072 6.19297 17.28 7.08004 17.28C7.96712 17.28 8.68897 16.7072 8.68897 16ZM27.9383 16C27.9383 15.2944 27.2197 14.72 26.3326 14.72C25.4455 14.72 24.7301 15.2944 24.7301 16C24.7301 16.7072 25.4455 17.28 26.3326 17.28C27.2197 17.28 27.9383 16.7072 27.9383 16Z" fill="white"/>
</g>
</svg>
